<?xml version="1.0" encoding="UTF-8" standalone="no"?>
<!DOCTYPE svg PUBLIC "-//W3C//DTD SVG 1.1//EN" "http://www.w3.org/Graphics/SVG/1.1/DTD/svg11.dtd">
<svg width="100%" height="100%" viewBox="0 0 512 512" version="1.1" xmlns="http://www.w3.org/2000/svg" xmlns:xlink="http://www.w3.org/1999/xlink" xml:space="preserve" xmlns:serif="http://www.serif.com/" style="fill-rule:evenodd;clip-rule:evenodd;stroke-linejoin:round;stroke-miterlimit:2;">
    <rect id="Artboard1" x="0" y="0" width="512" height="512" style="fill:none;"/>
    <g id="Artboard11" serif:id="Artboard1">
        <g transform="matrix(5.96897,0,0,5.90045,-42.4453,-39.0433)">
            <path d="M88.174,68.857L88.174,68.523L92.888,65.801L88.174,63.079L88.174,62.907L92.265,60.546L88.4,58.32L88.313,57.971C88.209,57.276 87.6,57.362 87.6,57.362C84.258,58.042 80.97,64.633 79.855,72.469C78.742,80.301 73.486,79.535 70.771,79.606C68.157,79.672 62.732,79.431 62.732,79.431C62.732,79.431 68.406,71.877 66.039,70.242C63.672,68.607 57.964,71.843 57.964,71.843C57.198,67.876 55.18,64.777 55.354,64.812C55.528,64.847 59.704,58.443 58.903,57.329C58.103,56.215 48.635,57.363 48.635,57.363C47.207,56.041 47.764,54.231 47.764,54.231C51.733,45.877 63.637,46.712 66.978,46.712C70.319,46.712 73.243,49.393 81.179,48.452C85.508,47.94 87.862,45.703 88.175,42.64L88.175,22.846C88.175,16.824 83.687,11.942 78.151,11.942L56.417,11.942C55.721,8.893 52.998,6.617 49.739,6.617C46.479,6.617 43.757,8.893 43.059,11.942L40.44,11.942C39.744,8.893 37.021,6.617 33.762,6.617C30.502,6.617 27.78,8.893 27.082,11.942L25.857,11.942L24.13,8.948L22.401,11.941L21.983,11.941L19.5,8.729L17.916,12.59L13.245,10.389L13.604,14.703L9.315,14.152L11.131,18.494L7.111,20.816L11.32,23.247L11.32,24.163L7.111,26.594L11.32,29.025L11.32,29.106L7.111,31.537L11.32,33.968L11.32,34.884L7.111,37.316L11.32,39.746L11.32,39.827L7.111,42.258L11.32,44.69L11.32,45.606L7.111,48.036L11.32,50.468L11.32,50.548L7.111,52.98L11.32,55.411L11.32,56.327L7.111,58.758L11.32,61.189L11.32,61.27L7.111,63.701L11.32,66.132L11.32,67.048L7.111,69.48L11.32,71.91L11.32,71.991L7.111,74.422L11.32,76.854L11.32,77.408L7.126,80.486L11.836,82.555L9.973,87.457L14.246,86.766L14.027,91.084L18.173,88.963L19.772,92.804L22.459,89.29L24.826,93.39L27.298,89.111L29.77,93.39L32.241,89.111L34.712,93.39L37.363,88.8L37.839,88.8L40.489,93.39L42.961,89.111L45.433,93.39L48.083,88.8L48.56,88.8L51.21,93.39L53.681,89.111L56.153,93.39L58.804,88.8L59.281,88.8L61.931,93.39L64.402,89.111L66.873,93.39L69.524,88.8L70,88.8L72.65,93.39L75.121,89.111L77.593,93.39L79.88,89.43L83.211,92.209L84.09,87.141L89.295,87.774L87.599,83.791L91.843,82.966L88.468,79.081L92.888,76.528L88.609,74.057L92.888,71.586L88.174,68.857ZM85.772,60.046C86.103,59.78 86.542,59.509 86.898,59.538C87.29,59.571 87.579,59.973 87.507,61.17C87.504,61.23 87.494,61.309 87.49,61.374C87.438,62.056 87.311,63.019 87.094,64.341C87.07,64.489 87.05,64.619 87.023,64.778C86.934,65.304 86.864,65.76 86.801,66.185C84.808,66.743 83.773,66.07 83.29,65.516C83.041,65.23 82.937,64.978 82.925,64.945C82.921,64.936 82.914,64.931 82.911,64.923C84.263,60.987 85.772,60.046 85.772,60.046ZM82.222,67.283C82.338,66.809 82.459,66.376 82.582,65.96C82.692,66.098 82.825,66.241 82.987,66.384C83.206,66.575 83.471,66.761 83.8,66.909C84.282,67.128 84.818,67.236 85.403,67.236C85.804,67.236 86.232,67.179 86.68,67.077C86.633,67.442 86.6,67.764 86.574,68.056C86.545,68.381 86.524,68.675 86.512,68.933C86.463,70.107 86.567,70.723 86.528,71.956C85.034,72.604 83.757,72.763 82.801,72.395C82.265,72.188 81.912,71.857 81.689,71.57C81.467,71.284 81.376,71.045 81.365,71.014C81.649,69.774 81.921,68.51 82.222,67.283ZM81.097,72.154C81.216,72.3 81.357,72.449 81.527,72.594C81.783,72.811 82.094,73.014 82.482,73.166C82.932,73.342 83.423,73.43 83.955,73.43C84.714,73.43 85.56,73.235 86.477,72.875C86.415,73.682 86.302,74.713 86.085,76.158C86.027,76.549 85.943,76.932 85.847,77.312C84.261,77.898 82.901,77.966 81.797,77.515C81.175,77.261 80.739,76.874 80.437,76.523C80.209,76.256 80.06,76.016 79.979,75.863C80.421,74.737 80.774,73.474 81.097,72.154ZM79.578,76.79C79.699,76.956 79.844,77.13 80.022,77.31C80.376,77.667 80.844,78.027 81.463,78.283C82.048,78.526 82.686,78.647 83.375,78.647C84.049,78.647 84.775,78.517 85.542,78.286C84.845,80.267 83.576,82.072 81.664,83.586C79.982,83.555 78.746,83.107 77.996,82.254C77.406,81.584 77.226,80.777 77.181,80.168C77.168,80.003 77.164,79.857 77.168,79.73C78.196,79.089 78.97,78.065 79.578,76.79ZM76.341,80.13C76.349,80.265 76.362,80.403 76.383,80.554C76.478,81.245 76.73,82.074 77.362,82.797C78.104,83.646 79.21,84.151 80.635,84.335C78.703,85.61 76.225,86.622 73.151,87.292C72.413,86.604 71.988,85.813 71.924,84.919C71.82,83.464 72.619,82.053 73.195,81.233C73.502,80.799 73.749,80.522 73.756,80.515C73.758,80.514 73.758,80.512 73.759,80.51C74.143,80.487 74.528,80.463 74.912,80.44C75.437,80.408 75.903,80.292 76.341,80.13ZM47.146,85.489C50.148,80.131 57.117,78.514 58.296,78.278C59.142,79.284 60.225,80.005 61.366,80.368C61.368,80.369 61.371,80.37 61.373,80.37C61.372,80.371 61.37,80.372 61.369,80.372C59.266,81.401 55.042,83.893 54.409,87.481C51.351,86.978 48.982,86.26 47.146,85.489ZM47.241,76.159C47.098,76.046 46.936,75.96 46.766,75.884C49.702,73.579 55.021,73.058 56.723,72.95C56.736,72.95 56.75,72.948 56.763,72.948C56.762,72.962 56.763,72.977 56.762,72.99C56.741,73.738 56.639,74.176 56.639,74.176C56.717,75.437 57.125,76.578 57.741,77.54C55.739,77.981 49.316,79.798 46.378,85.152C45.802,84.885 45.285,84.616 44.819,84.348C46.198,82.485 49.312,77.816 47.241,76.159ZM56.317,72.138C54.114,72.297 48.612,72.961 45.743,75.652C43.315,75.468 39.69,77.302 38.019,78.241C37.397,77.488 36.715,76.644 36.01,75.758C44.184,67.654 52.463,67.865 55.071,68.182C55.488,68.233 55.762,68.286 55.865,68.307C56.471,69.78 56.69,71.096 56.747,72.111C56.626,72.116 56.477,72.126 56.317,72.138ZM55.438,67.381C55.228,67.35 54.974,67.318 54.675,67.29C53.486,67.179 51.623,67.14 49.321,67.552C45.825,68.175 40.656,70.005 35.489,75.099C34.489,73.829 33.466,72.502 32.525,71.249C33.391,70.46 34.61,69.159 35.564,67.836C45.237,60.769 51.317,62.61 52.33,62.999C52.792,63.587 53.239,64.155 53.677,64.701C53.724,64.761 53.773,64.823 53.82,64.882C54.505,65.733 55.028,66.573 55.438,67.381ZM46.058,55.921C46.355,56.182 46.651,56.454 46.944,56.739C46.732,56.703 46.496,56.669 46.237,56.64C43.07,56.29 36.406,56.778 27.435,63.948C26.308,62.766 25.13,61.128 27.402,58.303C30.848,54.022 35.025,53.187 40.037,53.081C42.083,53.04 44.11,54.208 46.058,55.921ZM49.068,58.995C49.88,59.928 50.67,60.901 51.431,61.862C49.094,61.356 43.975,61.184 36.649,66.051C37.022,65.252 37.163,64.539 36.903,64.046C36.104,62.527 30.61,63.819 28.067,64.511C37.26,57.212 43.987,57.164 46.678,57.564C47.506,57.686 47.957,57.85 47.976,57.857C48.001,57.867 48.028,57.866 48.053,57.871C48.396,58.237 48.734,58.61 49.068,58.995ZM86.503,37.442L81.996,41.461L76.892,36.91L71.789,41.461L66.686,36.91L61.582,41.461L56.478,36.91L51.374,41.461L46.27,36.91L41.166,41.461L36.062,36.91L30.958,41.461L25.849,36.9L20.736,41.461L15.123,36.454L87.611,36.454L86.503,37.442ZM13.183,26.057C13.183,22.217 16.296,19.103 20.136,19.103C23.976,19.103 27.089,22.217 27.089,26.057C27.089,29.897 23.976,33.01 20.136,33.01C16.296,33.01 13.183,29.896 13.183,26.057ZM33.763,9.83C35.775,9.83 37.406,11.461 37.406,13.474C37.406,15.487 35.775,17.118 33.763,17.118C31.751,17.118 30.119,15.487 30.119,13.474C30.119,11.461 31.751,9.83 33.763,9.83ZM49.739,9.83C51.751,9.83 53.382,11.461 53.382,13.474C53.382,15.487 51.751,17.118 49.739,17.118C47.726,17.118 46.094,15.487 46.094,13.474C46.094,11.461 47.727,9.83 49.739,9.83ZM80.618,21.775C80.618,22.974 79.644,23.949 78.444,23.949C77.243,23.949 76.27,22.974 76.27,21.775C76.27,20.574 77.243,19.6 78.444,19.6C79.645,19.601 80.618,20.574 80.618,21.775ZM63.022,88.181C62.598,88.175 62.193,88.183 61.754,88.168C61.437,88.157 61.132,88.142 60.823,88.128C59.617,88.073 58.478,87.991 57.414,87.882C56.652,87.804 55.926,87.713 55.232,87.611C55.841,84.235 60.278,81.812 62.085,80.96C62.387,80.817 62.617,80.716 62.74,80.665C64.062,80.827 65.822,80.851 67.806,80.797C67.605,80.929 67.384,81.083 67.152,81.256C65.522,82.466 63.357,84.665 63.464,87.735C63.469,87.882 63.487,88.035 63.503,88.185C63.345,88.185 63.185,88.183 63.022,88.181ZM68.036,88.029C67.304,88.088 66.541,88.127 65.759,88.153C65.291,88.169 64.828,88.188 64.342,88.192C64.311,87.938 64.291,87.689 64.294,87.448C64.339,84.223 67.271,82.085 68.6,81.282C68.978,81.053 69.233,80.928 69.245,80.923C69.328,80.883 69.385,80.817 69.426,80.741C70.466,80.698 71.545,80.639 72.641,80.577C72.496,80.77 72.34,81.003 72.176,81.27C71.596,82.211 70.992,83.546 71.092,84.973C71.158,85.914 71.525,86.761 72.176,87.504C71.867,87.562 71.533,87.602 71.213,87.652C70.208,87.812 69.153,87.94 68.036,88.029Z" style="fill:white;fill-rule:nonzero;"/>
        </g>
    </g>
</svg>
